<?xml version="1.0" encoding="UTF-8"?>
<svg version="1.1" xmlns="http://www.w3.org/2000/svg" width="500" height="500">
<path d="M0 0 C1.66666667 1.66666667 3.33333333 3.33333333 5 5 C5.928125 5.886875 6.85625 6.77375 7.8125 7.6875 C10 10 10 10 10 12 C10.66 12 11.32 12 12 12 C12 12.66 12 13.32 12 14 C12.66 14 13.32 14 14 14 C14 14.66 14 15.32 14 16 C14.66 16 15.32 16 16 16 C17.53851766 17.71951974 19.00731759 19.50187497 20.4375 21.3125 C23.45235569 25.16467002 23.45235569 25.16467002 26.78515625 28.73046875 C28 30 28 30 28 32 C28.66 32 29.32 32 30 32 C30 32.66 30 33.32 30 34 C30.66 34 31.32 34 32 34 C33.48046875 35.46875 33.48046875 35.46875 35.1875 37.5 C38.29922661 41.17392932 41.48152755 44.7686304 44.71484375 48.3359375 C46 50 46 50 46 52 C46.66 52 47.32 52 48 52 C48.495 53.98 48.495 53.98 49 56 C46.88046983 58.00609052 44.75486559 60.00493603 42.625 62 C42.02171875 62.57234375 41.4184375 63.1446875 40.796875 63.734375 C40.21679688 64.27578125 39.63671875 64.8171875 39.0390625 65.375 C38.50490723 65.87773437 37.97075195 66.38046875 37.42041016 66.8984375 C36 68 36 68 34 68 C34 68.66 34 69.32 34 70 C33.34 70 32.68 70 32 70 C32 70.66 32 71.32 32 72 C30.3214487 73.49629179 28.58041102 74.92292661 26.8125 76.3125 C23.7833166 78.70097259 20.96472235 81.0359822 18.26171875 83.79296875 C16 86 16 86 14 86 C14 86.66 14 87.32 14 88 C13.34 88 12.68 88 12 88 C12 88.66 12 89.32 12 90 C11.34 90 10.68 90 10 90 C10 90.66 10 91.32 10 92 C8.6015625 93.41015625 8.6015625 93.41015625 6.625 95.0625 C2.34165541 98.68804524 -1.78372133 102.46199548 -5.8984375 106.27734375 C-8 108 -8 108 -10 108 C-10 108.66 -10 109.32 -10 110 C-10.66 110 -11.32 110 -12 110 C-12 110.66 -12 111.32 -12 112 C-12.66 112 -13.32 112 -14 112 C-14 112.66 -14 113.32 -14 114 C-15.5 115.625 -15.5 115.625 -17 117 C-16.175 117.78375 -15.35 118.5675 -14.5 119.375 C-12 122 -12 122 -12 124 C-11.34 124 -10.68 124 -10 124 C-10 124.66 -10 125.32 -10 126 C-9.34 126 -8.68 126 -8 126 C-8 126.66 -8 127.32 -8 128 C-7.34 128 -6.68 128 -6 128 C-4.51953125 129.46875 -4.51953125 129.46875 -2.8125 131.5 C0.29922661 135.17392932 3.48152755 138.7686304 6.71484375 142.3359375 C8 144 8 144 8 146 C7.34 146 6.68 146 6 146 C6 146.66 6 147.32 6 148 C4.56640625 149.4453125 4.56640625 149.4453125 2.5625 151.125 C1.84191406 151.73730469 1.12132812 152.34960938 0.37890625 152.98046875 C-0.40613281 153.64691406 -1.19117188 154.31335938 -2 155 C-3.6704787 156.47486024 -5.33724747 157.95393475 -7 159.4375 C-7.763125 160.11683594 -8.52625 160.79617188 -9.3125 161.49609375 C-9.869375 161.99238281 -10.42625 162.48867188 -11 163 C-14.76690636 161.26142784 -17.21232537 159.09741625 -20 156 C-20 155.34 -20 154.68 -20 154 C-20.66 154 -21.32 154 -22 154 C-22 153.34 -22 152.68 -22 152 C-22.66 152 -23.32 152 -24 152 C-24 151.34 -24 150.68 -24 150 C-24.66 150 -25.32 150 -26 150 C-27.33984375 148.671875 -27.33984375 148.671875 -28.9375 146.75 C-31.20679462 144.06723221 -33.50670994 141.43344885 -35.90625 138.8671875 C-36.40648682 138.33125977 -36.90672363 137.79533203 -37.42211914 137.24316406 C-38.4256602 136.17155617 -39.4326231 135.1031417 -40.44311523 134.03808594 C-44 130.22069869 -44 130.22069869 -44 128 C-44.66 128 -45.32 128 -46 128 C-46 127.34 -46 126.68 -46 126 C-46.66 126 -47.32 126 -48 126 C-48 125.34 -48 124.68 -48 124 C-48.66 124 -49.32 124 -50 124 C-50 123.34 -50 122.68 -50 122 C-50.66 122 -51.32 122 -52 122 C-55.99310345 118.00689655 -55.99310345 118.00689655 -56.015625 114.71875 C-54.51080488 110.69046229 -51.74267235 108.48673192 -48.5625 105.6875 C-47.96373047 105.13771484 -47.36496094 104.58792969 -46.74804688 104.02148438 C-42.28694682 100 -42.28694682 100 -40 100 C-40 99.34 -40 98.68 -40 98 C-39.34 98 -38.68 98 -38 98 C-38 97.34 -38 96.68 -38 96 C-36.671875 94.66015625 -36.671875 94.66015625 -34.75 93.0625 C-32.06723221 90.79320538 -29.43344885 88.49329006 -26.8671875 86.09375 C-26.33125977 85.59351318 -25.79533203 85.09327637 -25.24316406 84.57788086 C-24.17155617 83.5743398 -23.1031417 82.5673769 -22.03808594 81.55688477 C-18.22069869 78 -18.22069869 78 -16 78 C-16 77.34 -16 76.68 -16 76 C-15.34 76 -14.68 76 -14 76 C-14 75.34 -14 74.68 -14 74 C-12.6015625 72.58984375 -12.6015625 72.58984375 -10.625 70.9375 C-6.34165541 67.31195476 -2.21627867 63.53800452 1.8984375 59.72265625 C4 58 4 58 6 58 C6 57.34 6 56.68 6 56 C6.66 56 7.32 56 8 56 C8 55.34 8 54.68 8 54 C8.66 54 9.32 54 10 54 C10 53.34 10 52.68 10 52 C9.34 52 8.68 52 8 52 C8 51.34 8 50.68 8 50 C7.34 50 6.68 50 6 50 C4.51953125 48.53125 4.51953125 48.53125 2.8125 46.5 C-0.29922661 42.82607068 -3.48152755 39.2313696 -6.71484375 35.6640625 C-8 34 -8 34 -8 32 C-8.66 32 -9.32 32 -10 32 C-10 31.34 -10 30.68 -10 30 C-10.66 30 -11.32 30 -12 30 C-13.69140625 28.390625 -13.69140625 28.390625 -15.5625 26.25 C-16.49255859 25.20585937 -16.49255859 25.20585937 -17.44140625 24.140625 C-19.02498639 21.96568286 -19.84844813 20.68463319 -20 18 C-18.85546875 16.296875 -18.85546875 16.296875 -17.1875 14.75 C-16.37345703 13.96882812 -16.37345703 13.96882812 -15.54296875 13.171875 C-14 12 -14 12 -12 12 C-12 11.34 -12 10.68 -12 10 C-11.34 10 -10.68 10 -10 10 C-10 9.34 -10 8.68 -10 8 C-8.38542921 6.56418526 -6.70780925 5.19855217 -5 3.875 C-3.6078125 2.78832031 -3.6078125 2.78832031 -2.1875 1.6796875 C-1.465625 1.12539062 -0.74375 0.57109375 0 0 Z " fill="#ffffff" transform="translate(232,150)"/>
<path d="M0 0 C4 0 4 0 5.60546875 1.3984375 C6.12753906 2.05070312 6.64960938 2.70296875 7.1875 3.375 C10.71504977 7.69413501 14.49664361 11.6971911 18.375 15.703125 C20 18 20 18 19.78100586 19.95507812 C18.89390198 22.27779837 17.95464366 23.34545371 16.12890625 25.015625 C15.55462891 25.54414062 14.98035156 26.07265625 14.38867188 26.6171875 C13.78603516 27.15601562 13.18339844 27.69484375 12.5625 28.25 C11.96373047 28.80429688 11.36496094 29.35859375 10.74804688 29.9296875 C6.27170567 34 6.27170567 34 4 34 C4 34.66 4 35.32 4 36 C3.34 36 2.68 36 2 36 C2 36.66 2 37.32 2 38 C0.671875 39.33984375 0.671875 39.33984375 -1.25 40.9375 C-3.93276779 43.20679462 -6.56655115 45.50670994 -9.1328125 47.90625 C-9.66874023 48.40648682 -10.20466797 48.90672363 -10.75683594 49.42211914 C-11.82844383 50.4256602 -12.8968583 51.4326231 -13.96191406 52.44311523 C-17.77930131 56 -17.77930131 56 -20 56 C-20 56.66 -20 57.32 -20 58 C-20.66 58 -21.32 58 -22 58 C-22 58.66 -22 59.32 -22 60 C-23.3984375 61.41015625 -23.3984375 61.41015625 -25.375 63.0625 C-29.65834459 66.68804524 -33.78372133 70.46199548 -37.8984375 74.27734375 C-40 76 -40 76 -42 76 C-42 76.66 -42 77.32 -42 78 C-42.66 78 -43.32 78 -44 78 C-44 78.66 -44 79.32 -44 80 C-44.66 80 -45.32 80 -46 80 C-46 80.66 -46 81.32 -46 82 C-47.3984375 83.41015625 -47.3984375 83.41015625 -49.375 85.0625 C-53.65834459 88.68804524 -57.78372133 92.46199548 -61.8984375 96.27734375 C-64 98 -64 98 -66 98 C-66 101.76687864 -65.76462683 102.91190305 -64 106 C-63.34 106 -62.68 106 -62 106 C-62 106.66 -62 107.32 -62 108 C-61.34 108 -60.68 108 -60 108 C-60 108.66 -60 109.32 -60 110 C-59.34 110 -58.68 110 -58 110 C-58 110.66 -58 111.32 -58 112 C-57.34 112 -56.68 112 -56 112 C-54.73046875 113.2578125 -54.73046875 113.2578125 -53.1875 115.125 C-49.5933717 119.36148315 -45.85071969 123.43792692 -42.0625 127.5 C-41.47041748 128.13566895 -40.87833496 128.77133789 -40.26831055 129.42626953 C-38.84650943 130.95175014 -37.42339382 132.47600541 -36 134 C-37.51947499 137.36748512 -38.52100842 138.60840337 -42 140 C-42 140.66 -42 141.32 -42 142 C-42.66 142 -43.32 142 -44 142 C-44 142.66 -44 143.32 -44 144 C-44.66 144 -45.32 144 -46 144 C-46 144.66 -46 145.32 -46 146 C-46.66 146 -47.32 146 -48 146 C-48 146.66 -48 147.32 -48 148 C-49.75 149.5078125 -49.75 149.5078125 -52 151.125 C-52.7425 151.66382813 -53.485 152.20265625 -54.25 152.7578125 C-54.8275 153.16773438 -55.405 153.57765625 -56 154 C-57.67262717 152.38113585 -59.33795537 150.7547271 -61 149.125 C-61.928125 148.22007812 -62.85625 147.31515625 -63.8125 146.3828125 C-66 144 -66 144 -66 142 C-66.66 142 -67.32 142 -68 142 C-68 141.34 -68 140.68 -68 140 C-68.66 140 -69.32 140 -70 140 C-70 139.34 -70 138.68 -70 138 C-70.66 138 -71.32 138 -72 138 C-72 137.34 -72 136.68 -72 136 C-72.66 136 -73.32 136 -74 136 C-75.515625 134.4609375 -75.515625 134.4609375 -77.25 132.375 C-79.54660073 129.65952241 -81.87150775 127.08737736 -84.4375 124.625 C-87 122 -87 122 -87 120 C-87.87748901 119.61497314 -87.87748901 119.61497314 -88.77270508 119.22216797 C-92.78713363 117.01935866 -95.59504963 113.44989907 -98.6875 110.125 C-99.37650391 109.40441406 -100.06550781 108.68382812 -100.77539062 107.94140625 C-101.43087891 107.24144531 -102.08636719 106.54148437 -102.76171875 105.8203125 C-103.35944092 105.18367676 -103.95716309 104.54704102 -104.57299805 103.89111328 C-106.0759721 101.8993191 -106.58784428 100.43912332 -107 98 C-105.73427767 96.84852339 -104.46222094 95.70400686 -103.1875 94.5625 C-102.47980469 93.92441406 -101.77210938 93.28632813 -101.04296875 92.62890625 C-99 91 -99 91 -96 90 C-96 89.34 -96 88.68 -96 88 C-95.34 88 -94.68 88 -94 88 C-94 87.34 -94 86.68 -94 86 C-93.34 86 -92.68 86 -92 86 C-92 85.34 -92 84.68 -92 84 C-90.6015625 82.58984375 -90.6015625 82.58984375 -88.625 80.9375 C-84.34165541 77.31195476 -80.21627867 73.53800452 -76.1015625 69.72265625 C-74 68 -74 68 -72 68 C-72 67.34 -72 66.68 -72 66 C-71.34 66 -70.68 66 -70 66 C-70 65.34 -70 64.68 -70 64 C-69.34 64 -68.68 64 -68 64 C-68 63.34 -68 62.68 -68 62 C-66.6015625 60.58984375 -66.6015625 60.58984375 -64.625 58.9375 C-60.34165541 55.31195476 -56.21627867 51.53800452 -52.1015625 47.72265625 C-50 46 -50 46 -48 46 C-48 45.34 -48 44.68 -48 44 C-47.34 44 -46.68 44 -46 44 C-46 43.34 -46 42.68 -46 42 C-45.34 42 -44.68 42 -44 42 C-44 41.34 -44 40.68 -44 40 C-42.6015625 38.58984375 -42.6015625 38.58984375 -40.625 36.9375 C-36.34165541 33.31195476 -32.21627867 29.53800452 -28.1015625 25.72265625 C-26 24 -26 24 -24 24 C-24 23.34 -24 22.68 -24 22 C-23.34 22 -22.68 22 -22 22 C-22 21.34 -22 20.68 -22 20 C-21.34 20 -20.68 20 -20 20 C-20 19.34 -20 18.68 -20 18 C-18.6015625 16.58984375 -18.6015625 16.58984375 -16.625 14.9375 C-12.34165541 11.31195476 -8.21627867 7.53800452 -4.1015625 3.72265625 C-2 2 -2 2 0 2 C0 1.34 0 0.68 0 0 Z " fill="#ffffff" transform="translate(260,72)"/>
<path d="M0 0 C1.32 0 2.64 0 4 0 C4 0.66 4 1.32 4 2 C4.66 2 5.32 2 6 2 C6 2.66 6 3.32 6 4 C6.66 4 7.32 4 8 4 C9.234375 5.22265625 9.234375 5.22265625 10.75 7.0625 C13.26951 10.04302672 15.85651061 12.93224124 18.5390625 15.765625 C19.16844727 16.43070068 19.79783203 17.09577637 20.44628906 17.78100586 C21.72345487 19.12623329 23.00401561 20.46824637 24.28808594 21.80688477 C25.17802246 22.74745728 25.17802246 22.74745728 26.0859375 23.70703125 C26.6226709 24.2688208 27.1594043 24.83061035 27.71240234 25.40942383 C29 27 29 27 30 30 C30.66 30 31.32 30 32 30 C32 30.66 32 31.32 32 32 C32.66 32 33.32 32 34 32 C34 32.66 34 33.32 34 34 C34.66 34 35.32 34 36 34 C36 34.66 36 35.32 36 36 C36.66 36 37.32 36 38 36 C39.26953125 37.2578125 39.26953125 37.2578125 40.8125 39.125 C44.4066283 43.36148315 48.14928031 47.43792692 51.9375 51.5 C52.52958252 52.13566895 53.12166504 52.77133789 53.73168945 53.42626953 C55.15349057 54.95175014 56.57660618 56.47600541 58 58 C57.34 59.32 56.68 60.64 56 62 C55.34 62 54.68 62 54 62 C54 62.66 54 63.32 54 64 C53.34 64 52.68 64 52 64 C52 64.66 52 65.32 52 66 C51.34 66 50.68 66 50 66 C50 66.66 50 67.32 50 68 C48.5378418 69.45849609 48.5378418 69.45849609 46.51171875 71.1484375 C42.15705949 74.85310475 37.97134922 78.70281752 33.8125 82.625 C33.08216553 83.31142578 32.35183105 83.99785156 31.59936523 84.70507812 C26.25730071 89.74961731 21.03203508 94.89776184 15.93481445 100.18994141 C14.65904408 101.49595319 13.33399289 102.75351704 12 104 C11.34 104 10.68 104 10 104 C10 104.66 10 105.32 10 106 C9.34 106 8.68 106 8 106 C8 106.66 8 107.32 8 108 C7.34 108 6.68 108 6 108 C6 108.66 6 109.32 6 110 C5.34 110 4.68 110 4 110 C4 110.66 4 111.32 4 112 C3.34 112 2.68 112 2 112 C2 112.66 2 113.32 2 114 C1.34 114 0.68 114 0 114 C0 114.66 0 115.32 0 116 C-0.66 116 -1.32 116 -2 116 C-2 116.66 -2 117.32 -2 118 C-2.66 118 -3.32 118 -4 118 C-4 118.66 -4 119.32 -4 120 C-5.22265625 121.19921875 -5.22265625 121.19921875 -7.0625 122.6875 C-12.24028457 127.05799557 -16.92115169 131.89399991 -21.63110352 136.7565918 C-27.89526366 143.13622782 -27.89526366 143.13622782 -32 145 C-32.66 144.67 -33.32 144.34 -34 144 C-34 143.34 -34 142.68 -34 142 C-34.66 142 -35.32 142 -36 142 C-36 141.34 -36 140.68 -36 140 C-36.66 140 -37.32 140 -38 140 C-38 139.34 -38 138.68 -38 138 C-38.66 138 -39.32 138 -40 138 C-40 137.34 -40 136.68 -40 136 C-40.66 136 -41.32 136 -42 136 C-42 135.34 -42 134.68 -42 134 C-42.66 134 -43.32 134 -44 134 C-45.65625 132.390625 -45.65625 132.390625 -47.5 130.25 C-48.1084375 129.55390625 -48.716875 128.8578125 -49.34375 128.140625 C-50.87976963 126.15539208 -51.9723966 124.28127955 -53 122 C-52.20078125 121.27296875 -51.4015625 120.5459375 -50.578125 119.796875 C-44.14030766 113.91075778 -37.82918652 107.95139446 -31.78417969 101.65917969 C-30.5586981 100.4033769 -29.2834616 99.19648321 -28 98 C-27.34 98 -26.68 98 -26 98 C-26 97.34 -26 96.68 -26 96 C-25.34 96 -24.68 96 -24 96 C-24 95.34 -24 94.68 -24 94 C-23.34 94 -22.68 94 -22 94 C-22 93.34 -22 92.68 -22 92 C-21.34 92 -20.68 92 -20 92 C-20 91.34 -20 90.68 -20 90 C-19.34 90 -18.68 90 -18 90 C-18 89.34 -18 88.68 -18 88 C-17.34 88 -16.68 88 -16 88 C-16 87.34 -16 86.68 -16 86 C-15.34 86 -14.68 86 -14 86 C-14 85.34 -14 84.68 -14 84 C-13.34 84 -12.68 84 -12 84 C-12 83.34 -12 82.68 -12 82 C-10.77734375 80.80078125 -10.77734375 80.80078125 -8.9375 79.3125 C-3.74825106 74.92446365 0.96344664 70.08976219 5.71899414 65.2434082 C6.34281982 64.61136475 6.96664551 63.97932129 7.609375 63.328125 C8.16592773 62.7599707 8.72248047 62.19181641 9.29589844 61.60644531 C11.09807624 59.90754417 12.99388265 58.44953209 15 57 C13.99554337 54.75928906 13.12245015 53.12245015 11.375 51.375 C10.92125 50.92125 10.4675 50.4675 10 50 C10 49.34 10 48.68 10 48 C9.34 48 8.68 48 8 48 C8 47.34 8 46.68 8 46 C7.34 46 6.68 46 6 46 C6 45.34 6 44.68 6 44 C5.34 44 4.68 44 4 44 C2.5546875 42.54003906 2.5546875 42.54003906 0.875 40.515625 C-1.66191903 37.52869233 -4.25426671 34.65585628 -7 31.859375 C-7.65871094 31.18132812 -8.31742187 30.50328125 -8.99609375 29.8046875 C-10.35509893 28.41124359 -11.72260489 27.02604948 -13.09765625 25.6484375 C-14.07025391 24.63910156 -14.07025391 24.63910156 -15.0625 23.609375 C-15.65160156 23.01092773 -16.24070312 22.41248047 -16.84765625 21.79589844 C-18 20 -18 20 -17.76782227 17.87915039 C-16.8373657 15.60197258 -15.71529881 14.38430569 -13.9375 12.6875 C-13.31359375 12.089375 -12.6896875 11.49125 -12.046875 10.875 C-9.30436661 8.36277858 -6.52107005 5.90315837 -3.69921875 3.48046875 C-2.42270555 2.36828828 -1.19716986 1.19716986 0 0 Z " fill="#ffffff" transform="translate(288,140)"/>
<path d="M0 0 C1.32 0 2.64 0 4 0 C4 0.66 4 1.32 4 2 C4.66 2 5.32 2 6 2 C6 2.66 6 3.32 6 4 C6.66 4 7.32 4 8 4 C8 4.66 8 5.32 8 6 C8.66 6 9.32 6 10 6 C10 6.66 10 7.32 10 8 C10.66 8 11.32 8 12 8 C13.41015625 9.3984375 13.41015625 9.3984375 15.0625 11.375 C18.68804524 15.65834459 22.46199548 19.78372133 26.27734375 23.8984375 C28 26 28 26 28 28 C28.66 28 29.32 28 30 28 C30 28.66 30 29.32 30 30 C30.66 30 31.32 30 32 30 C32 30.66 32 31.32 32 32 C32.66 32 33.32 32 34 32 C35.3046875 33.29296875 35.3046875 33.29296875 36.875 35.1875 C39.22083037 37.96074862 41.60771736 40.67286876 44.09375 43.3203125 C44.63402832 43.89628174 45.17430664 44.47225098 45.73095703 45.06567383 C46.81710888 46.21973033 47.9065749 47.37067762 48.99951172 48.51831055 C51.32146554 50.99612766 52.91276798 52.73830393 54 56 C54.66 56 55.32 56 56 56 C56 56.66 56 57.32 56 58 C56.66 58 57.32 58 58 58 C59.3046875 59.29296875 59.3046875 59.29296875 60.875 61.1875 C63.22083037 63.96074862 65.60771736 66.67286876 68.09375 69.3203125 C68.63402832 69.89628174 69.17430664 70.47225098 69.73095703 71.06567383 C70.81710888 72.21973033 71.9065749 73.37067762 72.99951172 74.51831055 C75.32146554 76.99612766 76.91276798 78.73830393 78 82 C78.66 82 79.32 82 80 82 C80 83.32 80 84.64 80 86 C79.34 86 78.68 86 78 86 C78 86.66 78 87.32 78 88 C76.56640625 89.4453125 76.56640625 89.4453125 74.5625 91.125 C73.84191406 91.73730469 73.12132812 92.34960938 72.37890625 92.98046875 C71.59386719 93.64691406 70.80882812 94.31335938 70 95 C68.3295213 96.47486024 66.66275253 97.95393475 65 99.4375 C63.8553125 100.45650391 63.8553125 100.45650391 62.6875 101.49609375 C62.130625 101.99238281 61.57375 102.48867187 61 103 C57.23309364 101.26142784 54.78767463 99.09741625 52 96 C52 95.34 52 94.68 52 94 C51.34 94 50.68 94 50 94 C50 93.34 50 92.68 50 92 C49.34 92 48.68 92 48 92 C48 91.34 48 90.68 48 90 C47.34 90 46.68 90 46 90 C44.66015625 88.671875 44.66015625 88.671875 43.0625 86.75 C40.79320538 84.06723221 38.49329006 81.43344885 36.09375 78.8671875 C35.59351318 78.33125977 35.09327637 77.79533203 34.57788086 77.24316406 C33.5743398 76.17155617 32.5673769 75.1031417 31.55688477 74.03808594 C28 70.22069869 28 70.22069869 28 68 C27.34 68 26.68 68 26 68 C26 67.34 26 66.68 26 66 C25.34 66 24.68 66 24 66 C24 65.34 24 64.68 24 64 C23.34 64 22.68 64 22 64 C20.58984375 62.6015625 20.58984375 62.6015625 18.9375 60.625 C15.37018478 56.41316985 11.66611264 52.34822502 7.91796875 48.296875 C6.2035891 46.24380935 5.05775205 44.44010525 4 42 C3.34 42 2.68 42 2 42 C2 41.34 2 40.68 2 40 C-5.03087336 45.43028192 -5.03087336 45.43028192 -11.5 51.5 C-12.325 52.325 -13.15 53.15 -14 54 C-14.66 54 -15.32 54 -16 54 C-16 54.66 -16 55.32 -16 56 C-16.66 56 -17.32 56 -18 56 C-18 56.66 -18 57.32 -18 58 C-18.66 58 -19.32 58 -20 58 C-20 58.66 -20 59.32 -20 60 C-20.66 60 -21.32 60 -22 60 C-22 60.66 -22 61.32 -22 62 C-23.609375 63.7265625 -23.609375 63.7265625 -25.75 65.625 C-26.44609375 66.25664062 -27.1421875 66.88828125 -27.859375 67.5390625 C-30 69 -30 69 -34 69 C-35.92285156 67.50292969 -35.92285156 67.50292969 -37.890625 65.421875 C-38.59960938 64.67292969 -39.30859375 63.92398438 -40.0390625 63.15234375 C-40.76867187 62.35957031 -41.49828125 61.56679687 -42.25 60.75 C-43.36761719 59.58404297 -43.36761719 59.58404297 -44.5078125 58.39453125 C-50 52.51004464 -50 52.51004464 -50 48 C-47.8828125 45.421875 -47.8828125 45.421875 -45.125 42.75 C-44.22007812 41.85796875 -43.31515625 40.9659375 -42.3828125 40.046875 C-40 38 -40 38 -38 38 C-38 37.34 -38 36.68 -38 36 C-37.34 36 -36.68 36 -36 36 C-36 35.34 -36 34.68 -36 34 C-35.34 34 -34.68 34 -34 34 C-34 33.34 -34 32.68 -34 32 C-33.34 32 -32.68 32 -32 32 C-32 31.34 -32 30.68 -32 30 C-30.390625 28.4140625 -30.390625 28.4140625 -28.25 26.625 C-25.93096298 24.66242273 -23.74780716 22.7411705 -21.625 20.5625 C-20 19 -20 19 -18 19 C-17.773125 18.43796875 -17.54625 17.8759375 -17.3125 17.296875 C-15.63070365 14.35373139 -13.5289089 12.49955268 -11 10.25 C-10.113125 9.45078125 -9.22625 8.6515625 -8.3125 7.828125 C-6 6 -6 6 -4 6 C-4 5.34 -4 4.68 -4 4 C-3.34 4 -2.68 4 -2 4 C-2 3.34 -2 2.68 -2 2 C-1.34 2 -0.68 2 0 2 C0 1.34 0 0.68 0 0 Z " fill="#ffffff" transform="translate(296,88)"/>
<path d="M0 0 C1.1725131 0.95117134 2.33787015 1.91117009 3.5 2.875 C4.47453125 3.67550781 4.47453125 3.67550781 5.46875 4.4921875 C6.22671875 5.23855469 6.22671875 5.23855469 7 6 C7 6.66 7 7.32 7 8 C7.66 8 8.32 8 9 8 C9 8.66 9 9.32 9 10 C9.66 10 10.32 10 11 10 C11 10.66 11 11.32 11 12 C11.66 12 12.32 12 13 12 C13 12.66 13 13.32 13 14 C13.66 14 14.32 14 15 14 C15 14.66 15 15.32 15 16 C15.66 16 16.32 16 17 16 C17 16.66 17 17.32 17 18 C17.66 18 18.32 18 19 18 C19 19.32 19 20.64 19 22 C18.34 22 17.68 22 17 22 C17 22.66 17 23.32 17 24 C15.53125 25.4453125 15.53125 25.4453125 13.5 27.125 C9.09641089 30.8696013 5.04548565 34.87550096 1 39 C-3.53097123 43.61946677 -8.13211763 48.03262498 -13.03613281 52.25439453 C-16.97044307 55.75145052 -20.58183404 59.58230629 -24.23828125 63.36523438 C-24.82738281 63.96529297 -25.41648437 64.56535156 -26.0234375 65.18359375 C-26.54856934 65.72556396 -27.07370117 66.26753418 -27.61474609 66.82592773 C-29 68 -29 68 -31 68 C-31 68.66 -31 69.32 -31 70 C-31.66 70 -32.32 70 -33 70 C-33 70.66 -33 71.32 -33 72 C-33.66 72 -34.32 72 -35 72 C-35 72.66 -35 73.32 -35 74 C-35.66 74 -36.32 74 -37 74 C-37 74.66 -37 75.32 -37 76 C-37.66 76 -38.32 76 -39 76 C-39 76.66 -39 77.32 -39 78 C-39.66 78 -40.32 78 -41 78 C-41 78.66 -41 79.32 -41 80 C-41.66 80 -42.32 80 -43 80 C-43 80.66 -43 81.32 -43 82 C-43.66 82 -44.32 82 -45 82 C-45 82.66 -45 83.32 -45 84 C-46.22265625 85.19921875 -46.22265625 85.19921875 -48.0625 86.6875 C-52.44823897 90.40091535 -56.46475656 94.4159351 -60.5 98.5 C-64.89844115 102.9425331 -69.29985559 107.27203606 -74.08203125 111.3046875 C-78.2527029 114.99118749 -82.10167339 119.02977802 -86 123 C-89.10225304 121.61870485 -91.23600613 120.02060936 -93.63671875 117.62890625 C-94.29607422 116.97212891 -94.95542969 116.31535156 -95.63476562 115.63867188 C-96.65086914 114.6109668 -96.65086914 114.6109668 -97.6875 113.5625 C-98.37650391 112.88123047 -99.06550781 112.19996094 -99.77539062 111.49804688 C-100.43087891 110.83998047 -101.08636719 110.18191406 -101.76171875 109.50390625 C-102.658302 108.60393921 -102.658302 108.60393921 -103.57299805 107.68579102 C-105 106 -105 106 -106 103 C-102.88307091 99.82530062 -99.75516454 96.66164608 -96.625 93.5 C-95.73554688 92.59378906 -94.84609375 91.68757813 -93.9296875 90.75390625 C-92.65351563 89.46806641 -92.65351563 89.46806641 -91.3515625 88.15625 C-90.56604004 87.36025391 -89.78051758 86.56425781 -88.97119141 85.74414062 C-87 84 -87 84 -85 84 C-85 83.34 -85 82.68 -85 82 C-84.34 82 -83.68 82 -83 82 C-83 81.34 -83 80.68 -83 80 C-82.34 80 -81.68 80 -81 80 C-81 79.34 -81 78.68 -81 78 C-80.34 78 -79.68 78 -79 78 C-79 77.34 -79 76.68 -79 76 C-78.34 76 -77.68 76 -77 76 C-77 75.34 -77 74.68 -77 74 C-76.34 74 -75.68 74 -75 74 C-75 73.34 -75 72.68 -75 72 C-74.34 72 -73.68 72 -73 72 C-73 71.34 -73 70.68 -73 70 C-72.34 70 -71.68 70 -71 70 C-71 69.34 -71 68.68 -71 68 C-69.77734375 66.80078125 -69.77734375 66.80078125 -67.9375 65.3125 C-63.55175966 61.59908349 -59.5352579 57.58404942 -55.5 53.5 C-47.66159036 45.58344452 -47.66159036 45.58344452 -44 42.5 C-41.30047969 40.18557381 -38.74739435 37.79232246 -36.2578125 35.25390625 C-35.57976562 34.568125 -34.90171875 33.88234375 -34.203125 33.17578125 C-32.83121886 31.78066617 -31.46392149 30.38100208 -30.1015625 28.9765625 C-29.15796875 28.01556641 -29.15796875 28.01556641 -28.1953125 27.03515625 C-27.62828613 26.4512915 -27.06125977 25.86742676 -26.47705078 25.26586914 C-25 24 -25 24 -23 24 C-23 23.34 -23 22.68 -23 22 C-22.34 22 -21.68 22 -21 22 C-21 21.34 -21 20.68 -21 20 C-20.34 20 -19.68 20 -19 20 C-19 19.34 -19 18.68 -19 18 C-18.34 18 -17.68 18 -17 18 C-17 17.34 -17 16.68 -17 16 C-16.34 16 -15.68 16 -15 16 C-15 15.34 -15 14.68 -15 14 C-14.34 14 -13.68 14 -13 14 C-13 13.34 -13 12.68 -13 12 C-12.34 12 -11.68 12 -11 12 C-11 11.34 -11 10.68 -11 10 C-10.34 10 -9.68 10 -9 10 C-9 9.34 -9 8.68 -9 8 C-7.28515625 6.30859375 -7.28515625 6.30859375 -5.0625 4.4375 C-3.96615234 3.50744141 -3.96615234 3.50744141 -2.84765625 2.55859375 C-2.23792969 2.04425781 -1.62820313 1.52992188 -1 1 C-0.67 0.67 -0.34 0.34 0 0 Z " fill="#ffffff" transform="translate(371,190)"/>
<path d="M0 0 C1.09765702 1.09765702 2.1945733 2.19605927 3.2890625 3.296875 C4.62811716 4.62981525 5.97968059 5.95019188 7.3359375 7.265625 C8.15320313 8.06484375 8.97046875 8.8640625 9.8125 9.6875 C10.60269531 10.45449219 11.39289063 11.22148437 12.20703125 12.01171875 C14 14 14 14 14 16 C14.66 16 15.32 16 16 16 C16 16.66 16 17.32 16 18 C16.66 18 17.32 18 18 18 C18 18.66 18 19.32 18 20 C18.66 20 19.32 20 20 20 C20 20.66 20 21.32 20 22 C20.66 22 21.32 22 22 22 C23.3046875 23.29296875 23.3046875 23.29296875 24.875 25.1875 C27.22083037 27.96074862 29.60771736 30.67286876 32.09375 33.3203125 C32.90416748 34.18426636 32.90416748 34.18426636 33.73095703 35.06567383 C34.81710888 36.21973033 35.9065749 37.37067762 36.99951172 38.51831055 C39.32146554 40.99612766 40.91276798 42.73830393 42 46 C42.66 46 43.32 46 44 46 C44 46.66 44 47.32 44 48 C44.66 48 45.32 48 46 48 C46 48.66 46 49.32 46 50 C46.66 50 47.32 50 48 50 C48 50.66 48 51.32 48 52 C48.66 52 49.32 52 50 52 C52 55 52 55 51.8125 57 C50.885644 59.2814917 49.91639951 60.4668804 48 62 C47.34 62 46.68 62 46 62 C46 62.66 46 63.32 46 64 C45.34 64 44.68 64 44 64 C44 64.66 44 65.32 44 66 C43.34 66 42.68 66 42 66 C42 66.66 42 67.32 42 68 C41.34 68 40.68 68 40 68 C40 68.66 40 69.32 40 70 C37.25 72.6875 37.25 72.6875 34 75 C31.49518142 74.81068232 30.34329012 74.31825855 28.5 72.609375 C28.005 71.99578125 27.51 71.3821875 27 70.75 C24.70549397 67.98957899 22.37111944 65.29933872 19.9140625 62.68359375 C19.37265625 62.10706055 18.83125 61.53052734 18.2734375 60.93652344 C17.18529953 59.78198843 16.09420645 58.63023057 15 57.48144531 C12.67840094 55.00358478 11.08716888 53.26150663 10 50 C9.34 50 8.68 50 8 50 C8 49.34 8 48.68 8 48 C7.34 48 6.68 48 6 48 C6 47.34 6 46.68 6 46 C5.34 46 4.68 46 4 46 C4 45.34 4 44.68 4 44 C3.34 44 2.68 44 2 44 C0.6953125 42.70703125 0.6953125 42.70703125 -0.875 40.8125 C-3.22083037 38.03925138 -5.60771736 35.32713124 -8.09375 32.6796875 C-8.63402832 32.10371826 -9.17430664 31.52774902 -9.73095703 30.93432617 C-10.81710888 29.78026967 -11.9065749 28.62932238 -12.99951172 27.48168945 C-15.32146554 25.00387234 -16.91276798 23.26169607 -18 20 C-18.66 20 -19.32 20 -20 20 C-20 19.34 -20 18.68 -20 18 C-19.34 18 -18.68 18 -18 18 C-18 17.34 -18 16.68 -18 16 C-17.34 16 -16.68 16 -16 16 C-16 15.34 -16 14.68 -16 14 C-15.34 14 -14.68 14 -14 14 C-14 13.34 -14 12.68 -14 12 C-12.4609375 10.44921875 -12.4609375 10.44921875 -10.375 8.6875 C-9.65054688 8.07132813 -8.92609375 7.45515625 -8.1796875 6.8203125 C-7.46039063 6.21960938 -6.74109375 5.61890625 -6 5 C-5.38382813 4.48179687 -4.76765625 3.96359375 -4.1328125 3.4296875 C-2.76024877 2.28041165 -1.3809017 1.1392439 0 0 Z " fill="#ffffff" transform="translate(146,178)"/>
<path d="M0 0 C1.65 1.65 3.3 3.3 5 5 C3.68 5.33 2.36 5.66 1 6 C1 6.66 1 7.32 1 8 C0.01 8.33 -0.98 8.66 -2 9 C-2.99 7.68 -3.98 6.36 -5 5 C-3.35 3.35 -1.7 1.7 0 0 Z " fill="#ffffff" transform="translate(371,190)"/>
<path d="M0 0 C2 1 2 1 2.8125 2.875 C3 5 3 5 1.8125 6.6875 C-0.14065912 8.10185661 -1.64035727 8.59316505 -4 9 C-4.8125 7.3125 -4.8125 7.3125 -5 5 C-2.5625 2.25 -2.5625 2.25 0 0 Z " fill="#ffffff" transform="translate(217,163)"/>
<path d="M0 0 C0 3 0 3 -2.37109375 5.59375 C-3.38599458 6.57007662 -4.40848241 7.53856349 -5.4375 8.5 C-9.51071077 12.1826426 -9.51071077 12.1826426 -12 17 C-13.32 16.34 -14.64 15.68 -16 15 C-15.34773438 14.41992188 -14.69546875 13.83984375 -14.0234375 13.2421875 C-9.2156922 8.94499923 -4.50023877 4.61866611 0 0 Z " fill="#ffffff" transform="translate(338,222)"/>
<path d="M0 0 C0.33 0.99 0.66 1.98 1 3 C2.32 2.67 3.64 2.34 5 2 C5 2.99 5 3.98 5 5 C5.66 5.33 6.32 5.66 7 6 C6.01 6 5.02 6 4 6 C3.67 6.99 3.34 7.98 3 9 C1.35 7.35 -0.3 5.7 -2 4 C-1.34 2.68 -0.68 1.36 0 0 Z " fill="#ffffff" transform="translate(237,260)"/>
<path d="M0 0 C2.64 0 5.28 0 8 0 C8 0.99 8 1.98 8 3 C8.66 3.33 9.32 3.66 10 4 C8.02 4.33 6.04 4.66 4 5 C4 4.34 4 3.68 4 3 C3.34 3 2.68 3 2 3 C2 2.34 2 1.68 2 1 C1.34 0.67 0.68 0.34 0 0 Z " fill="#ffffff" transform="translate(188,209)"/>
<path d="M0 0 C7.48291572 6.15034169 7.48291572 6.15034169 10 10 C8.35 9.67 6.7 9.34 5 9 C5 8.01 5 7.02 5 6 C4.01 6 3.02 6 2 6 C0 3 0 3 0 0 Z " fill="#ffffff" transform="translate(204,186)"/>
<path d="M0 0 C0.66 0.33 1.32 0.66 2 1 C0.64615385 7.52307692 0.64615385 7.52307692 -2.625 9.9375 C-3.40875 10.288125 -4.1925 10.63875 -5 11 C-5.66 10.34 -6.32 9.68 -7 9 C-6.195625 8.608125 -5.39125 8.21625 -4.5625 7.8125 C-1.77223739 6.24024197 -1.77223739 6.24024197 -1.25 3.375 C-1.1675 2.59125 -1.085 1.8075 -1 1 C-0.67 0.67 -0.34 0.34 0 0 Z " fill="#ffffff" transform="translate(221,162)"/>
<path d="M0 0 C0.33 1.65 0.66 3.3 1 5 C0.01 5.33 -0.98 5.66 -2 6 C-3.37562854 4.71034824 -4.70766393 3.37310707 -6 2 C-6 1.34 -6 0.68 -6 0 C-3 -1 -3 -1 0 0 Z " fill="#ffffff" transform="translate(251,137)"/>
<path d="M0 0 C0.99 0 1.98 0 3 0 C2.67 0.99 2.34 1.98 2 3 C1.34 3 0.68 3 0 3 C0 3.66 0 4.32 0 5 C-0.66 5 -1.32 5 -2 5 C-2 5.66 -2 6.32 -2 7 C-2.66 7 -3.32 7 -4 7 C-4.33 7.66 -4.66 8.32 -5 9 C-4.75 6.625 -4.75 6.625 -4 4 C-1.9375 2.6875 -1.9375 2.6875 0 2 C0 1.34 0 0.68 0 0 Z " fill="#ffffff" transform="translate(280,139)"/>
<path d="M0 0 C0.66 0.33 1.32 0.66 2 1 C1.67 2.65 1.34 4.3 1 6 C-0.32 6 -1.64 6 -3 6 C-3.33 5.34 -3.66 4.68 -4 4 C-3.34 4 -2.68 4 -2 4 C-2 3.01 -2 2.02 -2 1 C-1.34 0.67 -0.68 0.34 0 0 Z " fill="#ffffff" transform="translate(221,306)"/>
<path d="M0 0 C0.99 0.33 1.98 0.66 3 1 C1.02 3.31 -0.96 5.62 -3 8 C-4.32 7.67 -5.64 7.34 -7 7 C-4.69 4.69 -2.38 2.38 0 0 Z " fill="#ffffff" transform="translate(297,202)"/>
<path d="M0 0 C0.99 0.66 1.98 1.32 3 2 C2.67 3.65 2.34 5.3 2 7 C1.34 7 0.68 7 0 7 C0 6.01 0 5.02 0 4 C-1.65 4.66 -3.3 5.32 -5 6 C-4.75 4.125 -4.75 4.125 -4 2 C-1.9375 0.75 -1.9375 0.75 0 0 Z " fill="#ffffff" transform="translate(242,258)"/>
<path d="M0 0 C0.99 0.33 1.98 0.66 3 1 C3 1.66 3 2.32 3 3 C3.66 3 4.32 3 5 3 C5 4.32 5 5.64 5 7 C4.34 7 3.68 7 3 7 C2.67 7.66 2.34 8.32 2 9 C1.34 6.03 0.68 3.06 0 0 Z " fill="#ffffff" transform="translate(371,167)"/>
<path d="M0 0 C0 3 0 3 -2.5 5.6875 C-3.325 6.450625 -4.15 7.21375 -5 8 C-5.99 7.67 -6.98 7.34 -8 7 C-5.36 4.69 -2.72 2.38 0 0 Z " fill="#ffffff" transform="translate(209,233)"/>
<path d="M0 0 C1.32 0.33 2.64 0.66 4 1 C3.34 2.32 2.68 3.64 2 5 C1.34 5 0.68 5 0 5 C-0.33 5.66 -0.66 6.32 -1 7 C-1 4.37886292 -0.68707555 2.49064888 0 0 Z " fill="#ffffff" transform="translate(342,197)"/>
<path d="M0 0 C0 3.90838866 -1.50567876 5.11594107 -4 8 C-4.99 7.67 -5.98 7.34 -7 7 C-4.66666667 4.66666667 -2.33333333 2.33333333 0 0 Z " fill="#ffffff" transform="translate(229,101)"/>
<path d="M0 0 C1.5625 1.25 1.5625 1.25 3 3 C2.8125 5.125 2.8125 5.125 2 7 C1.01 7.495 1.01 7.495 0 8 C-0.79953138 4.71303767 -1.09658936 3.28976808 0 0 Z " fill="#ffffff" transform="translate(195,230)"/>
<path d="M0 0 C1.98 0.99 1.98 0.99 4 2 C3.67 3.32 3.34 4.64 3 6 C2.01 5.67 1.02 5.34 0 5 C0 3.35 0 1.7 0 0 Z " fill="#ffffff" transform="translate(178,193)"/>
</svg>
